# xmcd
#
# Track frame offsets: 
#        150
#        14187
#        28725
#        43025
#        55830
#        68740
#        81795
#        94240
#        104397
#        118525
#        131440
#        145307
#        158245
#        172760
#        184970
#        200175
#        215285
#        227572
#        241072
#        254215
#        268782
#        283180
#
# Disc length: 3959 seconds
#
# Revision: 0
# Processed by: cddbd v1.5.2PL0 Copyright (c) Steve Scherf et al.
# Submitted via: ExactAudioCopyFreeDBPlugin 1.0
#
DISCID=4a0f7516
DTITLE=Elzadie Robinson - Complete Recorded Works Vol. 1 (1926-1928)
DYEAR=1994
DGENRE=Blues
TTITLE0=Humming Blues
TTITLE1=Barrel House Man
TTITLE2=Barrel House Man
TTITLE3=Sawmill Blues
TTITLE4=Sawmill Blues
TTITLE5=Houston Bound
TTITLE6=2.16 Blues
TTITLE7=Galveston Blues
TTITLE8=Troubled with the Blues
TTITLE9=Baltimore Blues
TTITLE10=Back Door Blues
TTITLE11=Whiskey Blues
TTITLE12=Tick Tock Blues
TTITLE13=Hour Behind the Sun
TTITLE14=The Santa Claus Crave
TTITLE15=St. Louis Cyclone Blues
TTITLE16=You Ain't the Last Man
TTITLE17=Love Crazy Blues
TTITLE18=Pay Day Daddy Blues
TTITLE19=Elazadie's Policy Blues
TTITLE20=Elzadie's Policy Blues
TTITLE21=Pay Day Daddy Blues
EXTD=
EXTT0=
EXTT1=
EXTT2=
EXTT3=
EXTT4=
EXTT5=
EXTT6=
EXTT7=
EXTT8=
EXTT9=
EXTT10=
EXTT11=
EXTT12=
EXTT13=
EXTT14=
EXTT15=
EXTT16=
EXTT17=
EXTT18=
EXTT19=
EXTT20=
EXTT21=
PLAYORDER=
